<svg width="532" height="81" viewBox="0 0 532 81" fill="none" xmlns="http://www.w3.org/2000/svg">
<g clip-path="url(#clip0_128_2363)">
<path d="M111.091 58.1865C108.526 58.1865 106.138 57.7158 103.929 56.7771C101.752 55.8385 99.8365 54.5403 98.1806 52.8884C96.5562 51.2023 95.2879 49.2251 94.3788 46.957C93.4697 44.6888 93.0137 42.1924 93.0137 39.4706C93.0137 36.7488 93.4526 34.3009 94.3303 32.0328C95.2395 29.7304 96.5077 27.7532 98.1322 26.1013C99.7566 24.4152 101.658 23.1199 103.832 22.2126C106.009 21.274 108.398 20.8032 110.994 20.8032C113.59 20.8032 115.85 21.2397 117.865 22.1156C119.911 22.9915 121.633 24.1413 123.029 25.5678C124.426 26.9601 125.432 28.4836 126.05 30.1383L120.935 32.6176C120.188 30.6405 118.954 29.0513 117.233 27.8531C115.511 26.6206 113.431 26.0043 110.994 26.0043C108.557 26.0043 106.463 26.5721 104.61 27.7047C102.758 28.8402 101.313 30.4122 100.272 32.4208C99.2665 34.4293 98.762 36.7802 98.762 39.4706C98.762 42.161 99.2807 44.5262 100.321 46.569C101.393 48.5775 102.855 50.1495 104.707 51.285C106.559 52.3863 108.686 52.9369 111.091 52.9369C113.106 52.9369 114.941 52.5318 116.597 51.7215C118.287 50.8799 119.635 49.713 120.641 48.2209C121.647 46.6974 122.152 44.9313 122.152 42.9228V40.4435L124.734 42.7773H110.991V37.9157H127.851V41.3194C127.851 43.9784 127.395 46.3607 126.486 48.4662C125.577 50.5404 124.343 52.3064 122.784 53.7643C121.225 55.2222 119.438 56.3235 117.423 57.071C115.409 57.8156 113.297 58.1894 111.088 58.1894L111.091 58.1865Z" fill="#ED682E"/>
<path d="M141.617 58.1873C139.636 58.1873 137.898 57.7508 136.401 56.8749C134.908 55.9676 133.737 54.7208 132.893 53.1317C132.081 51.5112 131.673 49.6482 131.673 47.5398V31.3003H137.179V47.0519C137.179 48.2502 137.425 49.3058 137.909 50.2131C138.396 51.1203 139.078 51.8336 139.955 52.3528C140.833 52.8378 141.839 53.0832 142.976 53.0832C144.113 53.0832 145.168 52.8236 146.046 52.3043C146.923 51.7851 147.605 51.0576 148.092 50.1161C148.611 49.1774 148.87 48.0733 148.87 46.8094V31.3003H154.328V57.6024H149.112V52.4498L149.696 53.1317C149.078 54.7522 148.055 55.999 146.627 56.8749C145.196 57.7508 143.523 58.1873 141.608 58.1873H141.617Z" fill="#ED682E"/>
<path d="M159.788 57.6045V31.3024H165.294V57.6045H159.788ZM159.788 27.7047V21.3853H165.294V27.7047H159.788Z" fill="#ED682E"/>
<path d="M170.758 57.6044V20.8003H176.264V57.6044H170.758Z" fill="#ED682E"/>
<path d="M181.727 57.6044V20.8003H187.233V57.6044H181.727Z" fill="#ED682E"/>
<path d="M200.591 58.1873C198.804 58.1873 197.228 57.8791 195.866 57.2629C194.535 56.6152 193.495 55.7394 192.748 54.6381C192.001 53.5026 191.628 52.1759 191.628 50.6524C191.628 49.2259 191.936 47.9449 192.554 46.8122C193.204 45.6767 194.196 44.721 195.527 43.9449C196.858 43.166 198.53 42.6154 200.545 42.293L209.705 40.7866V45.1147L201.617 46.5241C200.155 46.7837 199.083 47.2544 198.399 47.9335C197.718 48.5811 197.376 49.4256 197.376 50.4613C197.376 51.4969 197.75 52.2929 198.496 52.9405C199.277 53.5568 200.266 53.8649 201.469 53.8649C202.962 53.8649 204.262 53.5397 205.368 52.892C206.505 52.2444 207.382 51.3856 207.998 50.3157C208.616 49.2145 208.924 47.9991 208.924 46.6696V39.9107C208.924 38.6155 208.437 37.5598 207.462 36.7496C206.519 35.9079 205.254 35.4857 203.66 35.4857C202.198 35.4857 200.916 35.8737 199.81 36.6526C198.739 37.3972 197.943 38.3701 197.422 39.5684L192.842 37.2831C193.329 35.9878 194.124 34.8523 195.23 33.8794C196.333 32.8752 197.619 32.0963 199.081 31.5456C200.574 30.995 202.15 30.7183 203.806 30.7183C205.883 30.7183 207.722 31.1063 209.312 31.8852C210.936 32.664 212.187 33.7482 213.062 35.1433C213.972 36.5042 214.428 38.0934 214.428 39.9079V57.6053H209.167V52.8407L210.287 52.9862C209.668 54.0561 208.873 54.9805 207.898 55.7565C206.955 56.5354 205.869 57.1345 204.632 57.5567C203.43 57.979 202.082 58.1901 200.588 58.1901L200.591 58.1873Z" fill="#ED682E"/>
<path d="M229.298 58.1873C227.317 58.1873 225.579 57.7508 224.086 56.8749C222.592 55.9676 221.421 54.7208 220.577 53.1317C219.765 51.5112 219.36 49.6482 219.36 47.5398V31.3003H224.866V47.0519C224.866 48.2502 225.109 49.3058 225.596 50.2131C226.083 51.1203 226.765 51.8336 227.642 52.3528C228.52 52.8378 229.526 53.0832 230.663 53.0832C231.8 53.0832 232.855 52.8236 233.733 52.3043C234.61 51.7851 235.292 51.0576 235.779 50.1161C236.298 49.1774 236.56 48.0733 236.56 46.8094V31.3003H242.017V57.6024H236.802V52.4498L237.386 53.1317C236.768 54.7522 235.745 55.999 234.317 56.8749C232.886 57.7508 231.213 58.1873 229.298 58.1873Z" fill="#ED682E"/>
<path d="M247.47 57.6053V31.3032H252.731V36.9922L252.05 36.1163C252.602 34.3331 253.609 32.9894 255.071 32.0821C256.533 31.1748 258.205 30.7212 260.089 30.7212C262.201 30.7212 264.068 31.2889 265.692 32.4216C267.348 33.5229 268.454 34.9979 269.007 36.8467L267.448 36.9922C268.226 34.8866 269.411 33.3146 271.005 32.2761C272.629 31.2376 274.482 30.7212 276.559 30.7212C278.377 30.7212 280.019 31.1434 281.481 31.9851C282.974 32.8267 284.16 33.9936 285.038 35.4858C285.916 36.9779 286.352 38.6783 286.352 40.5898V57.6053H280.845V42.0962C280.845 40.7667 280.603 39.6483 280.116 38.7411C279.663 37.8024 279.013 37.0892 278.167 36.6013C277.354 36.082 276.397 35.8224 275.291 35.8224C274.185 35.8224 273.21 36.082 272.367 36.6013C271.523 37.0863 270.856 37.7996 270.369 38.7411C269.882 39.6797 269.639 40.7981 269.639 42.0962V57.6053H264.182V42.0962C264.182 40.7667 263.94 39.6483 263.452 38.7411C262.999 37.8024 262.349 37.0892 261.503 36.6013C260.691 36.082 259.716 35.8224 258.579 35.8224C257.442 35.8224 256.501 36.082 255.655 36.6013C254.811 37.0863 254.144 37.7996 253.657 38.7411C253.201 39.6797 252.976 40.7981 252.976 42.0962V57.6053H247.47Z" fill="#ED682E"/>
<path d="M303.651 58.1872C301.02 58.1872 298.68 57.5881 296.634 56.3869C294.619 55.1544 293.043 53.5025 291.906 51.4284C290.769 49.3228 290.202 46.9719 290.202 44.3785C290.202 41.7851 290.769 39.3714 291.906 37.3287C293.074 35.2859 294.633 33.6825 296.583 32.5156C298.532 31.3173 300.741 30.7153 303.209 30.7153C305.19 30.7153 306.959 31.0548 308.521 31.7367C310.08 32.4186 311.397 33.3572 312.468 34.5555C313.54 35.7224 314.352 37.0662 314.905 38.5897C315.489 40.1132 315.783 41.7338 315.783 43.4513C315.783 43.8735 315.766 44.31 315.734 44.7637C315.703 45.2173 315.637 45.6396 315.541 46.0276H294.539V41.651H312.423L309.792 43.6453C310.117 42.0561 310.003 40.6467 309.45 39.4142C308.932 38.1503 308.119 37.1603 307.014 36.4499C305.942 35.7053 304.674 35.3315 303.212 35.3315C301.75 35.3315 300.45 35.7053 299.313 36.4499C298.176 37.1632 297.298 38.1988 296.682 39.5626C296.064 40.8921 295.822 42.5126 295.953 44.4242C295.79 46.2073 296.036 47.7622 296.682 49.0917C297.366 50.4212 298.307 51.4569 299.51 52.2044C300.744 52.949 302.14 53.3228 303.699 53.3228C305.258 53.3228 306.64 52.9661 307.743 52.2529C308.88 51.5396 309.772 50.6152 310.422 49.4826L314.905 51.6709C314.386 52.9034 313.574 54.0218 312.468 55.026C311.397 55.9989 310.097 56.7749 308.57 57.3598C307.076 57.9105 305.435 58.1872 303.648 58.1872H303.651Z" fill="#ED682E"/>
<path d="M349.116 57.8303C346.554 57.8303 344.202 57.3738 342.062 56.4579C339.922 55.5107 338.058 54.204 336.468 52.5379C334.912 50.8403 333.695 48.8461 332.82 46.5579C331.945 44.2698 331.506 41.7563 331.506 39.0116C331.506 36.267 331.945 33.7506 332.82 31.4654C333.695 29.1772 334.912 27.1858 336.468 25.4854C338.058 23.7879 339.922 22.4783 342.062 21.5653C344.202 20.6181 346.554 20.1445 349.116 20.1445C351.678 20.1445 353.787 20.5868 355.73 21.4683C357.708 22.3499 359.361 23.494 360.692 24.8977C362.054 26.27 363.026 27.725 363.611 29.26L360.108 30.9746C359.199 28.7521 357.805 27.0061 355.924 25.7308C354.043 24.4555 351.775 23.8192 349.113 23.8192C346.451 23.8192 344.086 24.4555 342.011 25.7308C339.936 27.0061 338.314 28.7864 337.146 31.0716C335.977 33.3255 335.396 35.9732 335.396 39.0116C335.396 42.0501 335.98 44.6635 337.146 46.9516C338.314 49.2398 339.936 51.0201 342.011 52.2925C344.086 53.5336 346.454 54.1555 349.113 54.1555C351.481 54.1555 353.604 53.6334 355.485 52.5864C357.398 51.5422 358.905 50.1185 360.008 48.3239C361.111 46.4951 361.661 44.4039 361.661 42.0501V41.8048H349.11V38.3754H365.551V41.4139C365.551 43.799 365.13 46.0044 364.286 48.0301C363.442 50.0244 362.274 51.7561 360.783 53.2255C359.293 54.6948 357.54 55.8388 355.531 56.6548C353.553 57.4394 351.413 57.8303 349.11 57.8303H349.116Z" fill="#FF9C2C"/>
<path d="M378.561 57.8299C376.908 57.8299 375.432 57.5189 374.135 56.8998C372.839 56.2465 371.816 55.3649 371.072 54.2522C370.325 53.1424 369.955 51.8671 369.955 50.4291C369.955 48.4035 370.619 46.6403 371.95 45.1367C373.28 43.6332 375.387 42.6375 378.274 42.1468L387.71 40.5776V39.2053C387.71 37.6361 387.143 36.3637 386.008 35.3822C384.874 34.4008 383.398 33.9129 381.582 33.9129C379.992 33.9129 378.598 34.3209 377.399 35.1369C376.199 35.9214 375.307 36.9514 374.723 38.2238L371.414 36.4093C371.901 35.2995 372.662 34.2867 373.699 33.3708C374.771 32.455 375.985 31.736 377.347 31.2139C378.71 30.6576 380.12 30.3809 381.58 30.3809C383.492 30.3809 385.179 30.7575 386.638 31.5078C388.129 32.2582 389.28 33.3052 390.092 34.6433C390.936 35.95 391.358 37.4706 391.358 39.2024V57.2365H387.71V53.4619C386.866 54.7372 385.635 55.7814 384.013 56.5974C382.392 57.4133 380.576 57.8213 378.564 57.8213L378.561 57.8299ZM373.842 50.2836C373.842 51.4591 374.295 52.4576 375.204 53.2736C376.145 54.0896 377.345 54.4976 378.804 54.4976C380.588 54.4976 382.144 54.1209 383.475 53.3706C384.806 52.586 385.843 51.5418 386.587 50.2351C387.334 48.9284 387.707 47.4734 387.707 45.8728V43.9128L379.146 45.3336C377.265 45.6617 375.902 46.2637 375.059 47.1481C374.247 48.0297 373.842 49.0768 373.842 50.2836Z" fill="#FF9C2C"/>
<path d="M410.242 68.0241C407.548 68.0241 405.2 67.4192 403.188 66.2096C401.21 64.9999 399.782 63.4478 398.907 61.5534L402.265 59.7389C402.783 60.98 403.707 62.0584 405.038 62.9742C406.369 63.89 408.07 64.3465 410.145 64.3465C411.735 64.3465 413.194 64.0356 414.522 63.4164C415.853 62.7945 416.922 61.8815 417.734 60.6718C418.546 59.4621 418.951 57.9757 418.951 56.2125V51.9986C417.979 53.5335 416.665 54.7261 415.012 55.5763C413.359 56.4265 411.575 56.8516 409.66 56.8516C407.226 56.8516 405.04 56.2639 403.094 55.0884C401.147 53.913 399.608 52.3267 398.471 50.3353C397.368 48.3096 396.818 46.0729 396.818 43.6221C396.818 41.1713 397.371 38.9003 398.471 36.9089C399.606 34.9146 401.13 33.3312 403.043 32.1558C404.989 30.9803 407.195 30.3926 409.657 30.3926C411.57 30.3926 413.337 30.8006 414.958 31.6165C416.58 32.4325 417.911 33.5452 418.948 34.9489V30.9803H422.596V56.2211C422.596 58.475 422.06 60.4864 420.992 62.2496C419.954 64.047 418.495 65.4507 416.614 66.4635C414.764 67.5077 412.641 68.0327 410.242 68.0327V68.0241ZM409.851 53.1741C411.538 53.1741 413.063 52.749 414.425 51.8987C415.788 51.0172 416.873 49.856 417.683 48.418C418.526 46.9487 418.948 45.3482 418.948 43.6164C418.948 41.8846 418.526 40.3012 417.683 38.8632C416.871 37.3939 415.785 36.2327 414.425 35.3825C413.063 34.5009 411.538 34.0587 409.851 34.0587C408.164 34.0587 406.577 34.5009 405.18 35.3825C403.786 36.2327 402.684 37.3768 401.871 38.8119C401.093 40.2498 400.703 41.8504 400.703 43.6135C400.703 45.3767 401.093 46.9459 401.871 48.4152C402.684 49.8531 403.769 51.0115 405.132 51.8959C406.525 52.7461 408.098 53.1712 409.851 53.1712V53.1741Z" fill="#FF9C2C"/>
<path d="M429.122 57.2423V30.9744H432.77V34.2098C433.548 33.0343 434.585 32.1014 435.882 31.4167C437.179 30.7291 438.638 30.3867 440.26 30.3867C442.109 30.3867 443.762 30.8118 445.221 31.662C446.715 32.5122 447.88 33.6877 448.724 35.1912C449.599 36.6605 450.038 38.3267 450.038 40.1897V57.2452H446.39V41.6106C446.39 39.2254 445.757 37.3795 444.492 36.0728C443.261 34.7319 441.639 34.0643 439.627 34.0643C437.615 34.0643 436.01 34.7347 434.714 36.0728C433.417 37.4137 432.767 39.2597 432.767 41.6106V57.2452H429.119L429.122 57.2423Z" fill="#FF9C2C"/>
<path d="M463.576 57.8299C461.92 57.8299 460.446 57.5189 459.15 56.8998C457.853 56.2465 456.83 55.3649 456.086 54.2522C455.339 53.1424 454.966 51.8671 454.966 50.4291C454.966 48.4035 455.63 46.6403 456.961 45.1367C458.292 43.6332 460.398 42.6375 463.285 42.1468L472.721 40.5776V39.2053C472.721 37.6361 472.154 36.3637 471.02 35.3822C469.885 34.4008 468.409 33.9129 466.594 33.9129C465.003 33.9129 463.61 34.3209 462.41 35.1369C461.21 35.9214 460.318 36.9514 459.734 38.2238L456.425 36.4093C456.912 35.2995 457.673 34.2867 458.711 33.3708C459.782 32.455 460.996 31.736 462.359 31.2139C463.721 30.6576 465.132 30.3809 466.591 30.3809C468.503 30.3809 470.19 30.7575 471.649 31.5078C473.14 32.2582 474.291 33.3052 475.104 34.6433C475.947 35.95 476.369 37.4706 476.369 39.2024V57.2365H472.721V53.4619C471.877 54.7372 470.646 55.7814 469.025 56.5974C467.403 57.4133 465.588 57.8213 463.576 57.8213V57.8299ZM458.856 50.2836C458.856 51.4591 459.309 52.4576 460.218 53.2736C461.159 54.0896 462.359 54.4976 463.818 54.4976C465.602 54.4976 467.158 54.1209 468.489 53.3706C469.82 52.586 470.857 51.5418 471.601 50.2351C472.348 48.9284 472.721 47.4734 472.721 45.8728V43.9128L464.16 45.3336C462.279 45.6617 460.916 46.2637 460.073 47.1481C459.261 48.0297 458.856 49.0768 458.856 50.2836Z" fill="#FF9C2C"/>
<path d="M482.898 26.1208V20.7285H486.546V26.1208H482.898ZM482.898 57.2416V30.9738H486.546V57.2416H482.898Z" fill="#FF9C2C"/>
<path d="M493.041 57.242V30.9741H496.689V33.8157C497.37 32.8029 498.279 32.0183 499.413 31.462C500.582 30.9057 501.959 30.6289 503.549 30.6289H505.202V34.3036H502.916C501.035 34.3036 499.528 34.8913 498.393 36.0668C497.259 37.2422 496.692 38.9084 496.692 41.0653V57.2391H493.044L493.041 57.242Z" fill="#FF9C2C"/>
<path d="M520.375 57.83C517.944 57.83 515.738 57.2423 513.76 56.0669C511.814 54.8572 510.275 53.2081 509.137 51.1169C508 49.0256 507.436 46.6576 507.436 44.01C507.436 41.3623 507.989 39.0286 509.089 37.0029C510.192 34.9459 511.682 33.3282 513.563 32.1499C515.476 30.9744 517.616 30.3867 519.984 30.3867C521.865 30.3867 523.535 30.7462 524.995 31.4652C526.485 32.1499 527.75 33.1 528.788 34.3068C529.825 35.4822 530.62 36.8232 531.17 38.3267C531.723 39.796 531.997 41.3167 531.997 42.8859C531.997 43.214 531.98 43.5877 531.948 44.0128C531.914 44.4037 531.869 44.8145 531.803 45.2368H511.275C511.34 47.1312 511.794 48.766 512.637 50.1383C513.512 51.4792 514.632 52.5234 515.994 53.2738C517.357 54.0241 518.816 54.4007 520.372 54.4007C522.284 54.4007 523.892 53.9442 525.188 53.0284C526.485 52.1126 527.54 50.9714 528.349 49.599L531.461 51.2652C530.942 52.4407 530.147 53.5362 529.079 54.5491C528.007 55.5305 526.727 56.3294 525.237 56.9513C523.778 57.539 522.156 57.8329 520.372 57.8329L520.375 57.83ZM519.987 33.8161C518.559 33.8161 517.231 34.1442 515.997 34.7975C514.766 35.4509 513.729 36.3809 512.885 37.5906C512.073 38.7661 511.571 40.1726 511.378 41.8046H528.064C528.03 40.2354 527.642 38.8631 526.895 37.6876C526.183 36.4779 525.208 35.5307 523.977 34.846C522.777 34.1584 521.446 33.8161 519.987 33.8161Z" fill="#FF9C2C"/>
<path d="M73.2494 53.0115V28.096C73.2494 22.7066 70.3766 17.7281 65.7141 15.032L44.1571 2.57561C39.4946 -0.117652 33.7519 -0.117652 29.0894 2.57561L7.53527 15.0348C2.87275 17.7281 0 22.7095 0 28.0989V53.0144C0 58.4038 2.87275 63.3823 7.53527 66.0756L29.0923 78.5348C33.7548 81.2281 39.4974 81.2281 44.16 78.5348L65.717 66.0756C70.3795 63.3823 73.2522 58.4009 73.2522 53.0144L73.2494 53.0115Z" fill="url(#paint0_linear_128_2363)"/>
<path opacity="0.6" d="M59.1821 39.6167L49.8713 34.29C49.0562 33.825 48.0588 33.825 47.2465 34.2958L40.5805 38.1473C38.8221 39.163 38.8221 41.6994 40.5805 42.7151L44.6189 45.0488C46.3773 46.0645 46.3773 48.6037 44.6189 49.6194L37.9443 53.4767C37.1292 53.9475 36.126 53.9475 35.3081 53.4767L25.9973 48.0987C25.1794 47.6251 24.6806 46.755 24.6806 45.8134V35.0518C24.6806 34.1103 25.1851 33.2401 25.9973 32.7665L35.3081 27.3857C36.1232 26.9121 37.1292 26.9121 37.9443 27.3857L47.2408 32.758C48.0531 33.2287 49.0505 33.2316 49.8656 32.7637L56.5231 28.9577C58.2872 27.9478 58.2929 25.4 56.5317 24.3815L37.8844 13.6255C37.0694 13.1548 36.0719 13.1548 35.2568 13.6255L14.0646 25.8051C13.2438 26.2759 12.7422 27.1489 12.7422 28.0933V52.6664C12.7422 53.6079 13.2438 54.4781 14.056 54.9489L35.2539 67.234C36.069 67.7076 37.0751 67.7076 37.8901 67.2369L59.1935 54.9489C60.0114 54.4753 60.513 53.6051 60.513 52.6636V41.9076C60.513 40.9604 60.0057 40.0874 59.185 39.6167H59.1821Z" fill="white"/>
<path d="M14.0589 54.9515L22.5888 59.8958L35.2512 67.2338C35.6559 67.4677 36.109 67.5875 36.5621 67.5875C36.5678 67.5875 36.5707 67.5847 36.5707 67.579L36.622 55.1597C36.622 54.5891 36.3227 54.0613 35.8297 53.776L35.311 53.4764L26.1342 48.1755L25.4787 47.7961C24.9856 47.5108 24.6836 46.9858 24.6836 46.418V34.4439C24.6836 33.879 24.3843 33.354 23.897 33.0687L13.1071 26.7749C13.1071 26.7749 13.0985 26.7749 13.0957 26.7749C12.8677 27.1686 12.7451 27.6194 12.7451 28.0873V52.6548C12.7451 53.5991 13.2496 54.4722 14.0618 54.9458L14.0589 54.9515Z" fill="white"/>
<path d="M46.5395 46.6377C46.5395 46.5863 46.5395 46.5407 46.531 46.495C46.5367 46.5407 46.5395 46.5892 46.5395 46.6377ZM46.4255 46.184C46.4027 46.1441 46.3742 46.1099 46.3372 46.0785C46.3685 46.1099 46.3999 46.1469 46.4255 46.184ZM46.5281 46.4808C46.5196 46.4323 46.511 46.3866 46.4968 46.341C46.511 46.3866 46.5224 46.4294 46.5281 46.4808ZM46.4825 46.3096C46.4654 46.2668 46.4483 46.2268 46.4284 46.1897C46.4512 46.2268 46.4711 46.2668 46.4825 46.3096ZM46.3115 46.0528C46.2773 46.0214 46.2374 45.9929 46.1947 45.9644C46.2403 45.99 46.2773 46.0186 46.3115 46.0528ZM46.5196 46.8545C46.511 46.9087 46.5025 46.9629 46.4882 47.0143C46.5025 46.9601 46.511 46.9059 46.5196 46.8545ZM46.417 47.2568C46.397 47.3138 46.3742 47.3766 46.3486 47.4365C46.3714 47.3766 46.397 47.3167 46.417 47.2568ZM46.3343 47.4708C46.3087 47.5364 46.2773 47.602 46.246 47.6676C46.2773 47.602 46.3058 47.5364 46.3343 47.4708ZM46.0037 48.1041C45.961 48.1726 45.9182 48.2382 45.8755 48.3038C45.9211 48.2382 45.9638 48.1698 46.0037 48.1041Z" fill="#ED682E"/>
<path d="M47.2466 34.2958L40.5805 38.1473C38.8221 39.163 38.8221 41.6994 40.5805 42.7151L44.6189 45.0488C44.7187 45.1059 44.8127 45.1715 44.9039 45.24C44.9324 45.26 44.9581 45.2856 44.9866 45.3056C45.0464 45.357 45.1034 45.4055 45.1575 45.4597C45.186 45.4853 45.2117 45.5139 45.2402 45.5453C45.2915 45.5966 45.3342 45.6537 45.3798 45.7079C45.3998 45.7364 45.4254 45.7621 45.4454 45.7935C45.4967 45.8619 45.5394 45.9361 45.5822 46.0075C45.5936 46.0246 45.6021 46.0417 45.6135 46.0588C45.6648 46.1473 45.7047 46.2443 45.7446 46.3384C45.756 46.3669 45.7646 46.3955 45.7731 46.424C45.7959 46.4925 45.8216 46.5609 45.8387 46.6323C45.8501 46.6694 45.8558 46.7064 45.8643 46.7407C45.8814 46.8063 45.89 46.8691 45.9014 46.9347C45.9071 46.9718 45.9128 47.0089 45.9185 47.046C45.927 47.1173 45.9299 47.1915 45.9327 47.2628C45.9327 47.2913 45.9327 47.3227 45.9327 47.3512C45.9327 47.4511 45.9242 47.5509 45.9156 47.6508C45.9156 47.6765 45.9071 47.7022 45.9014 47.7307C45.89 47.8049 45.8786 47.879 45.8586 47.9532C45.8501 47.9903 45.8387 48.0274 45.8301 48.0645C45.813 48.1273 45.7931 48.1872 45.7703 48.2499C45.756 48.287 45.7418 48.3241 45.7247 48.3641C45.699 48.4268 45.6705 48.4867 45.6363 48.5495C45.6192 48.5809 45.605 48.6151 45.585 48.6465C45.5337 48.735 45.4796 48.8234 45.4197 48.9061C45.2145 49.1857 44.9467 49.4311 44.6132 49.6222L48.5604 47.3341L48.5689 47.3398L52.0573 45.3056L58.1419 41.7564C59.1821 41.1487 59.185 39.6537 58.1619 39.0375L49.8685 34.2929C49.0534 33.8279 48.0559 33.8279 47.2437 34.2986L47.2466 34.2958Z" fill="white"/>
</g>
<defs>
<linearGradient id="paint0_linear_128_2363" x1="2.85399" y1="0.55559" x2="72.0562" y2="2.23054" gradientUnits="userSpaceOnUse">
<stop stop-color="#ED682E"/>
<stop offset="1" stop-color="#FF9E2C"/>
</linearGradient>
<clipPath id="clip0_128_2363">
<rect width="532" height="80" fill="white" transform="translate(0 0.555176)"/>
</clipPath>
</defs>
</svg>
