<?xml version="1.0" standalone="no"?>
<!DOCTYPE svg PUBLIC "-//W3C//DTD SVG 20010904//EN"
 "http://www.w3.org/TR/2001/REC-SVG-20010904/DTD/svg10.dtd">
<svg version="1.0" xmlns="http://www.w3.org/2000/svg"
 width="356.000000pt" height="356.000000pt" viewBox="0 0 356.000000 356.000000"
 preserveAspectRatio="xMidYMid meet">
<metadata>
Created by potrace 1.14, written by Peter Selinger 2001-2017
</metadata>
<g transform="translate(0.000000,356.000000) scale(0.100000,-0.100000)"
fill="#000000" stroke="none">
<path d="M1710 3539 c-36 -4 -94 -17 -130 -29 -38 -13 -283 -147 -600 -328
-514 -295 -537 -310 -616 -388 -68 -67 -89 -96 -127 -175 -73 -152 -72 -135
-72 -859 l0 -645 23 -75 c40 -126 88 -207 177 -295 78 -77 102 -92 610 -385
303 -174 560 -315 600 -330 62 -22 86 -25 215 -25 131 0 152 3 215 26 79 29
1071 598 1155 663 110 84 202 229 234 366 24 99 23 1323 0 1419 -34 140 -126
284 -234 367 -54 42 -955 566 -1080 629 -36 18 -85 39 -110 45 -65 18 -185 26
-260 19z m545 -809 c231 -133 433 -255 449 -272 25 -27 28 -36 24 -80 -3 -31
-13 -57 -24 -68 -19 -18 -235 -145 -323 -190 -30 -15 -55 -20 -75 -17 -17 3
-133 64 -257 136 -169 98 -234 131 -260 131 -25 0 -91 -33 -259 -130 -124 -71
-235 -141 -247 -155 -23 -26 -23 -30 -23 -301 0 -221 3 -280 15 -303 18 -36
451 -290 506 -298 33 -5 57 6 209 93 185 106 210 129 210 196 0 52 -31 84
-145 148 -119 67 -145 95 -145 156 0 62 27 87 214 195 122 70 168 92 196 92
54 0 491 -252 515 -297 14 -27 16 -66 13 -308 l-3 -278 -25 -24 c-14 -14 -207
-129 -430 -257 -223 -128 -443 -254 -490 -280 -51 -30 -96 -49 -115 -49 -22 0
-167 79 -515 281 -267 154 -496 291 -510 305 l-25 24 -3 590 -2 590 32 34 c20
21 226 145 513 311 446 256 483 276 520 272 30 -4 150 -68 460 -247z"/>
</g>
</svg>
